# File created by Blade
# Date/Time:  Wed Jan 21 17:16:23 2015
# Frame Rate: 120.000 fps
#------------------------------------------------------
:FULLY-SPECIFIED
:DEGREES
1438
root 21.110991 5.263986 -15.861996 -183.415757 -7.014813 -206.315105
Spine 10.012227 2.967487 -39.266505
Head -5.018544 -3.640740 19.107687
LeftShoulder 8.528808 -28.740059 -2.025761
LeftArm 3.660510 63.513230 -71.528288
LeftForeArm 29.562975 -0.000000 31.783624
LeftHand 5.564371 -0.000000 19.279561
LeftHandThumb1 -26.253704 0.000000 33.147579
RightShoulder 2.474568 -2.619309 12.461328
RightArm 50.476029 -42.610059 43.980275
RightForeArm -47.107231 -0.000000 34.136445
RightHand -0.158700 -0.000000 -11.730813
RightHandThumb1 -24.326973 -0.000000 -32.862282
LeftUpLeg -14.402738 27.772818 35.583590
LeftLeg 149.414909 -0.000000 -0.000000
LeftFoot 48.554281 3.112507 19.348795
LeftToeBase 20.749969 -0.000000 -0.000000
RightUpLeg -108.218263 -6.309920 58.684116
RightLeg 126.031248 -0.000000 -0.000000
RightFoot 31.389397 -21.702586 6.914666
RightToeBase 33.821927 -0.000000 -0.000000
1439
root 21.109230 5.265469 -15.855474 -183.427128 -7.044724 -206.328177
Spine 10.015702 2.948928 -39.292346
Head -5.408225 -3.589478 19.100767
LeftShoulder 8.533922 -28.730312 -2.017757
LeftArm 3.723547 63.681659 -71.351925
LeftForeArm 29.827991 0.000000 31.852805
LeftHand 5.391156 -0.000000 19.620418
LeftHandThumb1 -26.253704 0.000000 33.147579
RightShoulder 2.466709 -2.592963 12.467719
RightArm 50.521311 -42.674389 43.917864
RightForeArm -47.320082 -0.000000 34.002981
RightHand -0.087183 0.000000 -12.023221
RightHandThumb1 -24.326973 -0.000000 -32.862282
LeftUpLeg -14.432411 27.771495 35.538661
LeftLeg 149.432089 -0.000000 -0.000000
LeftFoot 48.551648 3.097166 19.387784
LeftToeBase 21.028029 -0.000000 -0.000000
RightUpLeg -108.217919 -6.291332 58.778122
RightLeg 126.000418 -0.000000 -0.000000
RightFoot 31.265700 -22.048520 6.844062
RightToeBase 33.998707 -0.000000 -0.000000
1440
root 21.106781 5.266175 -15.849857 -183.441084 -7.067990 -206.350519
Spine 10.011737 2.933390 -39.325712
Head -5.789513 -3.527308 19.092606
LeftShoulder 8.531330 -28.706667 -1.996426
LeftArm 3.842580 63.876155 -71.138805
LeftForeArm 29.961593 -0.000000 31.896275
LeftHand 5.500048 -0.000000 19.747723
LeftHandThumb1 -26.253704 0.000000 33.147579
RightShoulder 2.461420 -2.614348 12.460427
RightArm 50.569846 -42.651430 43.904380
RightForeArm -47.016669 -0.000000 34.026316
RightHand -0.061260 -0.000000 -11.754731
RightHandThumb1 -24.326973 -0.000000 -32.862282
LeftUpLeg -14.450808 27.779591 35.495090
LeftLeg 149.440391 -0.000000 -0.000000
LeftFoot 48.580500 3.120948 19.383627
LeftToeBase 21.008391 -0.000000 -0.000000
RightUpLeg -108.238806 -6.328251 58.678049
RightLeg 126.017512 -0.000000 -0.000000
RightFoot 31.283744 -21.845979 6.912344
RightToeBase 33.944884 -0.000000 -0.000000
1441
root 21.105582 5.266811 -15.844049 -183.457113 -7.099615 -206.362699
Spine 10.031920 2.908387 -39.350902
Head -6.192022 -3.506293 19.095075
LeftShoulder 8.547726 -28.777222 -1.995533
LeftArm 3.759399 64.013371 -71.097912
LeftForeArm 30.132622 -0.000000 31.967165
LeftHand 5.534361 -0.000000 19.484058
LeftHandThumb1 -26.253704 0.000000 33.147579
RightShoulder 2.460999 -2.570326 12.447411
RightArm 50.580581 -42.719097 43.903856
RightForeArm -47.227446 -0.000000 33.902179
RightHand 0.022211 -0.000000 -12.078925
RightHandThumb1 -24.326973 -0.000000 -32.862282
LeftUpLeg -14.467125 27.762152 35.459212
LeftLeg 149.446791 -0.000000 -0.000000
LeftFoot 48.644103 3.053720 19.410082
LeftToeBase 20.447840 -0.000000 -0.000000
RightUpLeg -108.246243 -6.339067 58.696598
RightLeg 126.004891 -0.000000 -0.000000
RightFoot 31.220904 -21.951815 6.867976
RightToeBase 33.967186 -0.000000 -0.000000
1442
root 21.102359 5.267602 -15.839193 -183.486808 -7.123906 -206.381406
Spine 10.059586 2.897498 -39.376589
Head -6.613399 -3.524751 19.061860
LeftShoulder 8.550280 -28.836700 -1.985702
LeftArm 3.738463 64.162034 -71.001233
LeftForeArm 30.443077 -0.000000 32.048440
LeftHand 5.623598 -0.000000 19.327433
LeftHandThumb1 -26.253704 0.000000 33.147579
RightShoulder 2.463434 -2.550530 12.434158
RightArm 50.555601 -42.704146 43.958978
RightForeArm -46.943733 -0.000000 33.972289
RightHand 0.002704 -0.000000 -11.783202
RightHandThumb1 -24.326973 -0.000000 -32.862282
LeftUpLeg -14.477762 27.751589 35.424814
LeftLeg 149.459083 -0.000000 -0.000000
LeftFoot 48.585922 3.133137 19.356341
LeftToeBase 21.357720 -0.000000 -0.000000
RightUpLeg -108.251639 -6.373886 58.646037
RightLeg 126.009907 -0.000000 -0.000000
RightFoot 31.183894 -21.897500 6.912472
RightToeBase 33.991949 -0.000000 -0.000000
1443
root 21.100657 5.266927 -15.835259 -183.515962 -7.141617 -206.388788
Spine 10.078533 2.898161 -39.396068
Head -7.041104 -3.520984 19.041723
LeftShoulder 8.555931 -28.892561 -1.969545
LeftArm 3.725296 64.327188 -70.902758
LeftForeArm 30.687441 -0.000000 32.137593
LeftHand 5.663868 0.000000 19.198312
LeftHandThumb1 -26.253704 0.000000 33.147579
RightShoulder 2.449252 -2.533793 12.426207
RightArm 50.564128 -42.712355 43.981289
RightForeArm -46.912637 -0.000000 33.948497
RightHand 0.018338 -0.000000 -11.778629
RightHandThumb1 -24.326973 -0.000000 -32.862282
LeftUpLeg -14.481635 27.728407 35.408401
LeftLeg 149.468307 -0.000000 -0.000000
LeftFoot 48.594959 3.126659 19.354979
LeftToeBase 21.157866 -0.000000 -0.000000
RightUpLeg -108.248868 -6.403000 58.594963
RightLeg 126.017164 -0.000000 -0.000000
RightFoot 31.179251 -21.791085 6.930975
RightToeBase 33.950718 -0.000000 -0.000000
1444
root 21.098613 5.266473 -15.830729 -183.545480 -7.151737 -206.402359
Spine 10.098050 2.901884 -39.423069
Head -7.452954 -3.539476 19.027833
LeftShoulder 8.535638 -28.934662 -1.935116
LeftArm 3.811116 64.563347 -70.737636
LeftForeArm 30.841047 0.000000 32.229346
LeftHand 5.627108 -0.000000 19.098811
LeftHandThumb1 -26.253704 0.000000 33.147579
RightShoulder 2.445333 -2.488705 12.417791
RightArm 50.527935 -42.730541 44.042584
RightForeArm -46.909886 -0.000000 33.920629
RightHand 0.079092 0.000000 -11.778372
RightHandThumb1 -24.326973 -0.000000 -32.862282
LeftUpLeg -14.469787 27.712577 35.390569
LeftLeg 149.476605 -0.000000 -0.000000
LeftFoot 48.619019 3.086008 19.325084
LeftToeBase 20.978483 -0.000000 -0.000000
RightUpLeg -108.251215 -6.424703 58.515227
RightLeg 126.029647 -0.000000 -0.000000
RightFoot 31.185449 -21.676724 7.020913
RightToeBase 33.918029 -0.000000 -0.000000
1445
root 21.096868 5.265358 -15.825510 -183.564158 -7.168789 -206.403963
Spine 10.110977 2.902291 -39.429675
Head -7.890841 -3.648955 18.990324
LeftShoulder 8.560095 -28.986424 -1.953121
LeftArm 3.831897 64.717802 -70.610844
LeftForeArm 30.974005 -0.000000 32.298509
LeftHand 5.562482 -0.000000 18.939746
LeftHandThumb1 -26.253704 0.000000 33.147579
RightShoulder 2.412393 -2.428710 12.407072
RightArm 50.545646 -42.817255 44.010915
RightForeArm -47.031474 -0.000000 33.893525
RightHand 0.019697 -0.000000 -11.908066
RightHandThumb1 -24.326973 -0.000000 -32.862282
LeftUpLeg -14.489934 27.705923 35.376910
LeftLeg 149.492496 -0.000000 -0.000000
LeftFoot 48.622681 3.116179 19.316702
LeftToeBase 21.051874 -0.000000 -0.000000
RightUpLeg -108.251253 -6.425131 58.502605
RightLeg 126.026876 -0.000000 -0.000000
RightFoot 31.149391 -21.667235 6.973139
RightToeBase 33.852493 -0.000000 -0.000000
1446
root 21.095972 5.264918 -15.821826 -183.600103 -7.188899 -206.403796
Spine 10.144340 2.905340 -39.440085
Head -8.313299 -3.700822 18.959514
LeftShoulder 8.567544 -29.022101 -1.964804
LeftArm 3.926658 64.883146 -70.414437
LeftForeArm 31.062516 -0.000000 32.372009
LeftHand 5.547295 -0.000000 18.836965
LeftHandThumb1 -26.253704 0.000000 33.147579
RightShoulder 2.408823 -2.384692 12.399517
RightArm 50.423346 -42.714468 44.304359
RightForeArm -47.153914 -0.000000 33.702035
RightHand 0.350021 -0.000000 -11.899418
RightHandThumb1 -24.326973 -0.000000 -32.862282
LeftUpLeg -14.476522 27.688308 35.375421
LeftLeg 149.504330 -0.000000 -0.000000
LeftFoot 48.668231 3.090171 19.369675
LeftToeBase 20.843792 -0.000000 -0.000000
RightUpLeg -108.245354 -6.444279 58.485732
RightLeg 126.027121 -0.000000 -0.000000
RightFoot 31.156018 -21.663566 7.002182
RightToeBase 33.923240 -0.000000 -0.000000
1447
root 21.093860 5.263159 -15.816350 -183.623052 -7.196892 -206.400625
Spine 10.155351 2.903946 -39.448928
Head -8.711616 -3.806918 18.953388
LeftShoulder 8.583015 -29.063216 -1.968344
LeftArm 3.980270 65.025458 -70.272007
LeftForeArm 31.189655 -0.000000 32.426701
LeftHand 5.442480 -0.000000 18.815515
LeftHandThumb1 -26.253704 0.000000 33.147579
RightShoulder 2.404076 -2.363534 12.401557
RightArm 50.333180 -42.645488 44.459807
RightForeArm -47.103871 0.000000 33.710732
RightHand 0.456907 -0.000000 -11.696628
RightHandThumb1 -24.326973 -0.000000 -32.862282
LeftUpLeg -14.492096 27.678559 35.373323
LeftLeg 149.527349 -0.000000 -0.000000
LeftFoot 48.622551 3.114952 19.347208
LeftToeBase 21.087557 -0.000000 -0.000000
RightUpLeg -108.248034 -6.432102 58.476034
RightLeg 126.031536 -0.000000 -0.000000
RightFoot 31.139631 -21.720377 7.041397
RightToeBase 33.886773 -0.000000 -0.000000
1448
root 21.092371 5.261228 -15.813222 -183.653025 -7.214641 -206.389789
Spine 10.168310 2.888227 -39.448927
Head -9.101097 -3.892976 18.904198
LeftShoulder 8.568980 -29.065287 -1.962312
LeftArm 4.135332 65.149044 -70.037942
LeftForeArm 31.274717 0.000000 32.472731
LeftHand 5.506063 -0.000000 18.669625
LeftHandThumb1 -26.253704 0.000000 33.147579
RightShoulder 2.402891 -2.357515 12.404629
RightArm 50.316641 -42.654508 44.463888
RightForeArm -47.186604 0.000000 33.726911
RightHand 0.444298 -0.000000 -11.744981
RightHandThumb1 -24.326973 -0.000000 -32.862282
LeftUpLeg -14.495454 27.659727 35.383349
LeftLeg 149.547626 -0.000000 -0.000000
LeftFoot 48.613707 3.144468 19.341355
LeftToeBase 21.112714 -0.000000 -0.000000
RightUpLeg -108.251840 -6.444763 58.458176
RightLeg 126.038248 -0.000000 -0.000000
RightFoot 31.147380 -21.699338 7.060944
RightToeBase 33.891880 -0.000000 -0.000000
1449
root 21.093082 5.259891 -15.813187 -183.700312 -7.217131 -206.370680
Spine 10.185239 2.889878 -39.456041
Head -9.493196 -4.023277 18.919777
LeftShoulder 8.551096 -29.064792 -1.948692
LeftArm 4.311301 65.296637 -69.785620
LeftForeArm 31.261637 -0.000000 32.511476
LeftHand 5.591682 -0.000000 18.520016
LeftHandThumb1 -26.253704 0.000000 33.147579
RightShoulder 2.406272 -2.339387 12.437488
RightArm 50.253632 -42.628352 44.523537
RightForeArm -47.156503 -0.000000 33.777290
RightHand 0.465028 -0.000000 -11.592115
RightHandThumb1 -24.326973 -0.000000 -32.862282
LeftUpLeg -14.460625 27.611311 35.423311
LeftLeg 149.553494 -0.000000 -0.000000
LeftFoot 48.617469 3.123169 19.348064
LeftToeBase 21.073280 -0.000000 -0.000000
RightUpLeg -108.233665 -6.503412 58.359527
RightLeg 126.058352 -0.000000 -0.000000
RightFoot 31.236263 -21.389250 7.164724
RightToeBase 33.813161 -0.000000 -0.000000
1450
root 21.093993 5.258912 -15.810308 -183.719079 -7.224259 -206.362507
Spine 10.178839 2.882081 -39.479089
Head -9.876900 -4.178826 18.902645
LeftShoulder 8.561022 -29.073482 -1.937055
LeftArm 4.389800 65.404253 -69.633063
LeftForeArm 31.233480 -0.000000 32.570943
LeftHand 5.563476 -0.000000 18.389794
LeftHandThumb1 -26.253704 0.000000 33.147579
RightShoulder 2.386735 -2.382992 12.462088
RightArm 50.299950 -42.599827 44.474944
RightForeArm -47.163153 -0.000000 33.848789
RightHand 0.425088 -0.000000 -11.454216
RightHandThumb1 -24.326973 -0.000000 -32.862282
LeftUpLeg -14.458454 27.600297 35.431720
LeftLeg 149.569908 -0.000000 -0.000000
LeftFoot 48.646101 3.078594 19.413280
LeftToeBase 20.822499 -0.000000 -0.000000
RightUpLeg -108.207047 -6.471154 58.438067
RightLeg 126.028306 -0.000000 -0.000000
RightFoot 31.148631 -21.652565 7.062312
RightToeBase 33.886779 -0.000000 -0.000000
